<svg viewBox="0 0 116 20" fill="none" xmlns="http://www.w3.org/2000/svg">
    <path
        d="M49.6529 19.993C56.4766 13.3719 63.2549 6.70526 70.0682 0.0701752C76.8255 6.74386 83.6458 13.3509 90.4381 19.9895C88.4919 20.0105 86.5458 19.9965 84.5996 20C79.7745 15.2246 74.8689 10.5298 70.0542 5.74386C65.229 10.5228 60.3305 15.2211 55.5088 20C53.5557 19.9965 51.6025 20.007 49.6529 19.993Z"
        fill="#E82C2B"/>
    <path
        d="M15.5028 19.9965C20.9254 14.7088 26.3236 9.4 31.7637 4.13333C37.1514 9.4421 42.5671 14.7228 47.9933 19.993C46.3196 19.9684 44.6425 20.0877 42.9724 19.9439C41.9067 19.2702 41.1346 18.2281 40.2261 17.3684C34.5904 17.3649 28.9546 17.3789 23.3153 17.3614C22.4104 18.2561 21.4775 19.1263 20.5516 20C18.8675 20 17.1834 20.0035 15.5028 19.9965ZM26.6765 14.0281C30.0552 14.0456 33.4304 14.0246 36.809 14.0386C35.0935 12.4281 33.4583 10.7333 31.7358 9.12982C30.0167 10.7298 28.3955 12.4316 26.6765 14.0281Z"
        fill="black"/>
    <path
        d="M0.786144 4.91228C8.33663 4.90877 15.8871 4.91929 23.4376 4.90877C22.1134 6.13333 20.8381 7.41052 19.4894 8.61052C14.5384 8.57894 9.58397 8.60701 4.63301 8.59649C4.62602 12.3965 4.62952 16.2 4.62952 20C3.34723 20 2.06494 20 0.786144 20C0.786144 14.9719 0.786144 9.94035 0.786144 4.91228Z"
        fill="black"/>
    <path
        d="M93.2088 5.87018C94.3059 4.97544 95.7804 4.90175 97.1325 4.90526C103.425 4.92632 109.721 4.89474 116.014 4.92281C115.05 6.1614 114.054 7.37193 113.076 8.6C107.873 8.59649 102.67 8.59649 97.4679 8.59649C96.6294 8.57193 95.431 8.79298 95.3506 9.82807C95.2528 11.5614 95.2423 13.3088 95.3541 15.0386C95.5463 16.1614 96.86 16.4246 97.8173 16.407C102.915 16.407 108.009 16.393 113.107 16.407C114.071 17.6 115.039 18.793 115.993 19.993C109.34 20.0035 102.691 20.007 96.0424 19.993C93.8936 20.0316 91.5841 18.4246 91.4758 16.1509C91.4164 14.0421 91.4618 11.9298 91.4548 9.81754C91.4269 8.32982 91.9859 6.77544 93.2088 5.87018Z"
        fill="black"/>
</svg>
