<svg xmlns="http://www.w3.org/2000/svg" version="1.1" xmlns:xlink="http://www.w3.org/1999/xlink" xmlns:svgjs="http://svgjs.dev/svgjs" width="1000" height="1000"><g clip-path="url(#SvgjsClipPath1114)"><rect width="1000" height="1000" fill="#ffffff"></rect><g transform="matrix(25,0,0,25,0,0)"><svg xmlns="http://www.w3.org/2000/svg" version="1.1" xmlns:xlink="http://www.w3.org/1999/xlink" xmlns:svgjs="http://svgjs.dev/svgjs" width="40" height="40"><svg width="40" height="40" viewBox="0 0 40 40" fill="none" xmlns="http://www.w3.org/2000/svg">
    <g clip-path="url(#clip0_2070_1467)">
        <rect width="40" height="40" fill="white"></rect>
        <path d="M-12.5269 48.5122C-14.8701 46.169 -14.8701 42.3701 -12.5269 40.0269L15.7574 11.7426C18.1005 9.3995 21.8995 9.39949 24.2426 11.7426L52.5269 40.0269C54.8701 42.3701 54.8701 46.169 52.5269 48.5122L24.2426 76.7965C21.8995 79.1396 18.1005 79.1396 15.7574 76.7965L-12.5269 48.5122Z" fill="#104993"></path>
        <path d="M-12.5269 61.9731C-14.8701 59.6299 -14.8701 55.8309 -12.5269 53.4878L15.7573 25.2035C18.1005 22.8604 21.8995 22.8604 24.2426 25.2035L52.5269 53.4878C54.87 55.8309 54.87 59.6299 52.5269 61.9731L24.2426 90.2573C21.8995 92.6005 18.1005 92.6005 15.7573 90.2573L-12.5269 61.9731Z" fill="#619AE5"></path>
    </g>
    <defs>
        <clipPath id="clip0_2070_1467">
            <rect width="40" height="40" fill="white"></rect>
        </clipPath>
    <clipPath id="SvgjsClipPath1114"><rect width="1000" height="1000" x="0" y="0" rx="200" ry="200"></rect></clipPath></defs>
</svg></svg></g></g></svg>