<?xml version="1.0" standalone="no"?>
<!DOCTYPE svg PUBLIC "-//W3C//DTD SVG 20010904//EN"
 "http://www.w3.org/TR/2001/REC-SVG-20010904/DTD/svg10.dtd">
<svg version="1.0" xmlns="http://www.w3.org/2000/svg"
 width="3712.000000pt" height="3712.000000pt" viewBox="0 0 3712.000000 3712.000000"
 preserveAspectRatio="xMidYMid meet">
<metadata>
Created by potrace 1.14, written by Peter Selinger 2001-2017
</metadata>
<g transform="translate(0.000000,3712.000000) scale(0.100000,-0.100000)"
fill="#000000" stroke="none">
<path d="M22307 21625 c-64 -62 -128 -122 -143 -134 -15 -11 -24 -21 -22 -21
3 0 -33 -37 -79 -82 -47 -46 -143 -139 -213 -208 -71 -69 -257 -251 -415 -405
-158 -154 -345 -336 -415 -405 -70 -69 -236 -231 -369 -360 -132 -129 -350
-343 -485 -475 -135 -132 -356 -349 -493 -482 -279 -272 -420 -410 -841 -822
-161 -157 -361 -353 -445 -434 -84 -82 -296 -290 -472 -462 -329 -322 -403
-394 -829 -808 -136 -133 -303 -295 -370 -360 -66 -65 -219 -214 -339 -330
-419 -407 -477 -465 -477 -470 0 -3 419 -6 931 -7 l932 0 81 80 c44 43 205
202 357 352 397 392 1143 1123 1509 1478 113 110 282 275 376 367 95 92 301
294 459 448 653 637 1435 1403 1796 1761 l76 76 170 -168 c217 -216 990 -976
1193 -1174 85 -84 287 -281 449 -438 161 -158 346 -339 411 -402 65 -63 225
-218 355 -345 130 -126 319 -311 420 -410 101 -99 308 -301 461 -450 282 -275
388 -379 904 -888 l292 -288 929 2 c511 0 929 3 929 6 0 6 -211 214 -568 561
-106 103 -211 204 -233 225 -21 21 -39 43 -39 48 0 5 -4 9 -9 9 -5 0 -81 71
-170 158 -88 86 -272 266 -408 398 -136 133 -305 297 -375 365 -69 68 -253
248 -408 399 -156 151 -336 327 -401 390 -304 297 -691 674 -779 760 -182 177
-721 704 -880 860 -87 85 -306 299 -486 475 -533 522 -1243 1220 -1625 1598
l-126 125 -116 -113z"/>
<path d="M10117 20393 c-19 -21 -116 -115 -214 -210 -98 -94 -225 -217 -283
-273 -245 -238 -1302 -1268 -1565 -1525 -67 -66 -265 -259 -440 -430 -175
-170 -393 -384 -486 -475 -93 -91 -275 -269 -406 -397 -131 -128 -316 -308
-411 -402 -95 -93 -302 -295 -460 -449 -308 -301 -588 -575 -769 -753 -62 -61
-113 -112 -113 -115 0 -2 362 -4 803 -4 l804 0 50 48 c28 26 110 103 183 172
191 180 198 187 411 392 107 102 205 197 219 210 l26 23 629 -3 c347 -1 635
-2 640 -2 6 0 217 0 470 0 253 0 467 0 475 0 245 -1 963 0 985 1 109 4 954 1
962 -4 6 -4 13 -4 17 0 8 8 930 8 944 -1 6 -3 13 -3 15 1 4 6 170 8 257 4 18
-1 72 -53 240 -231 245 -259 399 -407 514 -495 14 -11 36 -28 47 -37 12 -10
25 -18 29 -18 4 0 17 -9 30 -20 13 -11 28 -21 34 -21 6 -1 25 -4 41 -6 17 -3
373 -6 792 -8 574 -2 761 0 756 8 -4 7 -61 65 -128 129 -313 303 -386 375
-615 598 -135 131 -291 283 -347 337 -56 54 -204 198 -330 321 -222 216 -296
289 -836 815 -266 260 -355 347 -887 867 -171 168 -379 371 -462 452 -134 131
-331 324 -1098 1078 -118 116 -272 267 -341 335 -69 69 -131 125 -136 125 -5
0 -26 -17 -46 -37z m128 -1638 c203 -194 509 -490 661 -640 95 -93 261 -257
371 -363 109 -106 223 -218 253 -248 30 -30 60 -59 65 -64 6 -5 45 -43 88 -83
42 -40 80 -71 84 -68 3 3 4 0 2 -7 -4 -11 -237 -13 -1259 -13 -690 1 -1417 1
-1615 1 l-359 0 49 46 c131 122 393 376 617 596 498 490 719 706 933 907 12
11 24 16 30 11 5 -5 42 -39 80 -75z"/>
<path d="M251 17774 l0 -2414 615 0 c338 0 614 3 614 8 1 4 1 825 2 1825 l1
1818 2379 -2 2379 -2 31 29 c17 16 39 36 48 44 47 42 208 189 235 215 18 17
99 93 180 170 82 77 172 163 201 190 104 100 360 344 394 375 77 70 160 151
160 154 0 3 -1629 4 -3619 4 l-3620 0 0 -2414z"/>
<path d="M30769 20186 c-2 -2 -44 -6 -94 -10 -49 -3 -99 -8 -111 -10 -12 -2
-45 -7 -74 -11 -29 -4 -60 -8 -69 -10 -174 -40 -299 -83 -396 -135 -77 -41
-185 -113 -185 -122 0 -5 -4 -8 -10 -8 -20 0 -179 -152 -241 -230 -66 -84
-193 -303 -191 -330 0 -3 -5 -14 -11 -25 -6 -11 -12 -23 -13 -27 -1 -5 -3 -10
-4 -13 -1 -3 -3 -8 -4 -12 -1 -5 -9 -30 -18 -58 -9 -27 -20 -63 -24 -80 -10
-41 -11 -45 -14 -47 -2 -4 -9 -37 -16 -83 -3 -22 -8 -51 -10 -65 -15 -91 -18
-273 -18 -1170 0 -1062 3 -1224 28 -1325 2 -5 6 -23 10 -40 8 -31 18 -65 32
-100 4 -11 8 -26 10 -33 10 -50 142 -273 201 -338 15 -17 37 -42 49 -55 53
-62 245 -220 294 -242 8 -4 29 -16 45 -27 84 -55 312 -150 396 -165 18 -3 36
-8 41 -11 5 -3 20 -7 33 -10 14 -2 37 -6 53 -9 15 -4 41 -9 57 -12 39 -7 6565
-15 6585 -7 12 4 12 8 -4 20 -11 8 -17 14 -13 14 6 0 -11 23 -38 54 -6 6 -45
54 -85 106 -91 115 -81 103 -177 221 -43 53 -90 111 -105 130 -14 19 -36 45
-48 59 -12 14 -30 35 -41 48 -10 12 -16 22 -12 22 4 0 0 6 -9 13 -8 6 -73 84
-144 172 -71 88 -133 165 -139 172 -5 6 -21 26 -35 43 -14 18 -32 41 -40 51
-15 19 -56 20 -2565 22 -1403 2 -2568 7 -2590 11 -189 38 -324 97 -411 179
-30 29 -54 58 -54 64 0 7 -4 13 -9 13 -10 0 -45 79 -59 135 -24 94 -41 865
-28 1285 13 403 27 532 59 552 7 4 8 8 4 8 -12 0 26 51 70 94 37 37 157 102
201 111 12 2 26 6 30 9 4 2 26 7 48 10 23 4 56 11 75 16 21 6 974 10 2618 9
l2585 0 28 33 c15 18 31 38 35 43 36 46 159 201 163 205 3 3 52 64 110 135 57
72 115 144 129 161 14 17 37 46 51 64 14 18 35 44 47 59 13 14 26 31 31 36 88
113 232 294 250 313 12 14 22 28 22 31 0 3 15 24 34 46 19 22 33 42 31 46 -4
6 -6339 11 -6346 5z"/>
</g>
</svg>
