<svg viewBox="0 0 21 20" fill="none" xmlns="http://www.w3.org/2000/svg">
    <path
        d="M8.24997 9.16675L8.36997 9.17258C8.65883 9.20026 8.92905 9.32756 9.13432 9.53267C9.33958 9.73778 9.46709 10.0079 9.49497 10.2967L9.49997 10.4167L9.49414 10.5367C9.46647 10.8256 9.33916 11.0958 9.13405 11.3011C8.92894 11.5064 8.65881 11.6339 8.36997 11.6617L8.24997 11.6667H5.33331V13.3334H8.24997C9.66664 13.3334 10.8475 12.3234 11.1116 10.9842L11.1366 10.8342L16.1666 10.8334C16.7591 10.8334 17.3233 10.7092 17.8333 10.4867V14.1667C17.8333 14.6838 17.673 15.1881 17.3745 15.6103C17.0761 16.0325 16.6541 16.3518 16.1666 16.5242V17.5001C16.1666 17.7211 16.0788 17.9331 15.9226 18.0893C15.7663 18.2456 15.5543 18.3334 15.3333 18.3334H5.33331C5.11229 18.3334 4.90033 18.2456 4.74405 18.0893C4.58777 17.9331 4.49997 17.7211 4.49997 17.5001V16.5251C4.01241 16.3526 3.59032 16.0331 3.29184 15.6108C2.99336 15.1884 2.83316 14.6839 2.83331 14.1667V10.8334C2.83331 10.3914 3.0089 9.96746 3.32146 9.6549C3.63402 9.34234 4.05795 9.16675 4.49997 9.16675H8.24997ZM18.6666 6.25008V6.66675L18.6625 6.81341C18.6266 7.42474 18.3676 8.00163 17.9345 8.43465C17.5015 8.86766 16.9246 9.12669 16.3133 9.16258L16.1666 9.16675H10.8858C10.6618 8.69462 10.3151 8.29133 9.88189 7.99902C9.4487 7.70672 8.94496 7.53613 8.42331 7.50508L8.24997 7.50008H4.49997C3.89247 7.50008 3.32331 7.66258 2.83247 7.94675L2.83331 5.00008C2.83331 4.11603 3.1845 3.26818 3.80962 2.64306C4.43474 2.01794 5.28259 1.66675 6.16664 1.66675H14.0833C15.2989 1.66675 16.4647 2.14963 17.3242 3.00918C18.1838 3.86872 18.6666 5.03451 18.6666 6.25008Z"
        fill="currentColor"/>
</svg>
