<svg viewBox="0 0 20 20" fill="none" xmlns="http://www.w3.org/2000/svg">
    <path
        d="M14.1667 2.49992H17.5C17.721 2.49992 17.933 2.58772 18.0892 2.744C18.2455 2.90028 18.3333 3.11224 18.3333 3.33325V16.6666C18.3333 16.8876 18.2455 17.0996 18.0892 17.2558C17.933 17.4121 17.721 17.4999 17.5 17.4999H2.49999C2.27898 17.4999 2.06701 17.4121 1.91073 17.2558C1.75445 17.0996 1.66666 16.8876 1.66666 16.6666V3.33325C1.66666 3.11224 1.75445 2.90028 1.91073 2.744C2.06701 2.58772 2.27898 2.49992 2.49999 2.49992H5.83332V0.833252H7.49999V2.49992H12.5V0.833252H14.1667V2.49992ZM3.33332 7.49992V15.8333H16.6667V7.49992H3.33332ZM4.99999 9.16658H6.66666V10.8333H4.99999V9.16658ZM9.16666 9.16658H10.8333V10.8333H9.16666V9.16658ZM13.3333 9.16658H15V10.8333H13.3333V9.16658Z"
        fill="currentColor"/>
</svg>
