<svg viewBox="0 0 32 32" fill="none" xmlns="http://www.w3.org/2000/svg">
    <path
        d="M12 2.67066V2.66666H26.664C27.4 2.66666 28 3.27332 28 3.98932V28.0107C27.9997 28.3616 27.86 28.698 27.6118 28.946C27.3635 29.194 27.0269 29.3333 26.676 29.3333H5.32403C5.14894 29.3321 4.97579 29.2964 4.81449 29.2283C4.65319 29.1601 4.50689 29.0609 4.38395 28.9362C4.261 28.8115 4.16382 28.6639 4.09795 28.5016C4.03207 28.3394 3.9988 28.1658 4.00003 27.9907V10.6667L12 2.67066ZM7.77337 10.6667H12V6.43999L7.77337 10.6667ZM14.6667 5.33332V12C14.6667 12.3536 14.5262 12.6927 14.2762 12.9428C14.0261 13.1928 13.687 13.3333 13.3334 13.3333H6.6667V26.6667H25.3334V5.33332H14.6667Z"
        fill="currentColor"/>
</svg>
