<svg viewBox="0 0 20 20" fill="none" xmlns="http://www.w3.org/2000/svg">
    <path
        d="M10.0009 3.77418C11.9584 2.01668 14.9834 2.07501 16.8692 3.96418C18.7542 5.85418 18.8192 8.86418 17.0659 10.8275L9.99919 17.9042L2.93419 10.8275C1.18086 8.86418 1.24669 5.84918 3.13086 3.96418C5.01836 2.07751 8.03752 2.01418 10.0009 3.77418ZM15.6892 5.14168C14.4392 3.89001 12.4225 3.83918 11.1142 5.01418L10.0017 6.01251L8.88836 5.01501C7.57586 3.83835 5.56336 3.89001 4.31003 5.14335C3.06836 6.38501 3.00586 8.37251 4.15003 9.68585L10 15.545L15.85 9.68668C16.995 8.37251 16.9325 6.38751 15.6892 5.14168Z"
        fill="currentColor"/>
</svg>
