<svg xmlns="http://www.w3.org/2000/svg" width="86" height="25" viewBox="0 0 86 25" fill="none">
    <path d="M6.65881 1.20701H8.76835V10.3239H6.65881V4.2154L2.10954 10.3239H0V1.20701H2.10954V7.33384L6.65881 1.20701Z" fill="currentColor"/>
    <path d="M19.4556 8.30607H21.0149V10.3239H18.9787H11.9713H9.93518V8.30607H10.1553C10.3021 8.30607 10.4488 8.29995 10.5956 8.28772C10.7545 8.26326 10.9013 8.20823 11.0358 8.12263C11.1826 8.0248 11.3049 7.87193 11.4027 7.66403C11.5005 7.44391 11.5617 7.14429 11.5861 6.76519C11.5984 6.54506 11.6045 6.21487 11.6045 5.77462C11.6167 5.33437 11.6228 4.85131 11.6228 4.32546C11.635 3.7996 11.6412 3.26152 11.6412 2.7112C11.6534 2.14866 11.6595 1.64726 11.6595 1.20701H19.4556V8.30607ZM17.3461 8.30607V3.24317H13.6773C13.6651 3.8424 13.6529 4.44775 13.6406 5.05921C13.6406 5.65844 13.6284 6.16596 13.6039 6.58175C13.5795 6.9364 13.5428 7.26047 13.4939 7.55397C13.445 7.83524 13.3838 8.08594 13.3104 8.30607H17.3461Z" fill="currentColor"/>
    <path d="M29.0315 1.20701H31.1227V10.3239H29.0315V9.00313H28.9398C28.6341 9.46784 28.2183 9.84695 27.6924 10.1404C27.1788 10.434 26.5612 10.5807 25.8397 10.5807C25.2038 10.5929 24.6107 10.4829 24.0604 10.2505C23.51 10.0182 23.0331 9.69408 22.6295 9.27829C22.226 8.85027 21.908 8.33664 21.6757 7.73741C21.4555 7.13818 21.3455 6.48391 21.3455 5.77462C21.3455 5.06533 21.4555 4.41718 21.6757 3.83018C21.8958 3.23094 22.2015 2.71732 22.5928 2.28929C22.9964 1.86127 23.4734 1.53108 24.0237 1.29873C24.574 1.06637 25.1793 0.950195 25.8397 0.950195C26.549 0.962424 27.1666 1.10918 27.6924 1.39045C28.2183 1.67172 28.6341 2.03248 28.9398 2.47273H29.0315V1.20701ZM26.2616 8.56288C26.6774 8.56288 27.0504 8.48951 27.3806 8.34276C27.723 8.19601 28.0104 7.99422 28.2427 7.73741C28.4873 7.4806 28.6769 7.18098 28.8114 6.83856C28.9459 6.49614 29.0132 6.13538 29.0132 5.75628C29.0132 5.36494 28.9459 4.99806 28.8114 4.65565C28.6769 4.31323 28.4873 4.01973 28.2427 3.77514C28.0104 3.51833 27.723 3.31655 27.3806 3.1698C27.0504 3.02305 26.6774 2.94967 26.2616 2.94967C25.8458 2.94967 25.4667 3.02305 25.1243 3.1698C24.7819 3.31655 24.4884 3.51833 24.2438 3.77514C23.9992 4.01973 23.8097 4.31323 23.6751 4.65565C23.5406 4.99806 23.4734 5.36494 23.4734 5.75628C23.4734 6.14761 23.5406 6.51449 23.6751 6.8569C23.8097 7.19932 23.9992 7.49894 24.2438 7.75575C24.4884 8.00034 24.7819 8.19601 25.1243 8.34276C25.4667 8.48951 25.8458 8.56288 26.2616 8.56288Z" fill="currentColor"/>
    <path d="M8.58491 22.4767H6.47537V15.396H2.10954V22.4767H0V13.3598H8.58491V22.4767Z" fill="currentColor"/>
    <path d="M15.8458 13.103C16.5061 13.103 17.1115 13.2192 17.6618 13.4515C18.2121 13.6839 18.6829 14.0141 19.0743 14.4421C19.4778 14.8701 19.7897 15.3837 20.0098 15.983C20.2299 16.57 20.34 17.2181 20.34 17.9274C20.34 18.6367 20.2238 19.291 19.9915 19.8902C19.7713 20.4894 19.4595 21.003 19.0559 21.4311C18.6524 21.8469 18.1754 22.1709 17.6251 22.4033C17.087 22.6356 16.4939 22.7457 15.8458 22.7335C15.1487 22.7335 14.5311 22.5867 13.993 22.2932C13.4672 21.9997 13.0514 21.6206 12.7457 21.1559H12.6539V25.0002H10.5627V13.3598H12.6539V14.6255H12.7457C13.0636 14.1853 13.4855 13.8245 14.0114 13.5432C14.5372 13.262 15.1487 13.1152 15.8458 13.103ZM15.4239 20.7157C15.8396 20.7157 16.2188 20.6423 16.5612 20.4955C16.9036 20.3488 17.1971 20.1531 17.4417 19.9085C17.6863 19.6517 17.8758 19.3521 18.0103 19.0097C18.1449 18.6673 18.2121 18.3004 18.2121 17.9091C18.2121 17.5177 18.1449 17.1508 18.0103 16.8084C17.8758 16.466 17.6863 16.1725 17.4417 15.9279C17.1971 15.6711 16.9036 15.4693 16.5612 15.3226C16.2188 15.1758 15.8396 15.1025 15.4239 15.1025C15.0081 15.1025 14.629 15.1758 14.2865 15.3226C13.9564 15.4693 13.669 15.6711 13.4244 15.9279C13.192 16.1725 13.0086 16.466 12.8741 16.8084C12.7395 17.1508 12.6723 17.5177 12.6723 17.9091C12.6723 18.2882 12.7395 18.6489 12.8741 18.9913C13.0086 19.3338 13.192 19.6334 13.4244 19.8902C13.669 20.147 13.9564 20.3488 14.2865 20.4955C14.629 20.6423 15.0081 20.7157 15.4239 20.7157Z" fill="currentColor"/>
    <path d="M26.1541 22.7335C25.4081 22.7335 24.7294 22.6112 24.118 22.3666C23.5187 22.1098 23.0051 21.7674 22.5771 21.3394C22.1491 20.8991 21.8128 20.3855 21.5682 19.7985C21.3358 19.2115 21.2196 18.5817 21.2196 17.9091C21.2196 17.2365 21.3358 16.6066 21.5682 16.0196C21.8005 15.4326 22.1307 14.9251 22.5587 14.4971C22.999 14.0691 23.5187 13.7328 24.118 13.4882C24.7294 13.2314 25.4081 13.103 26.1541 13.103C26.8879 13.103 27.5544 13.2314 28.1536 13.4882C28.7528 13.7328 29.2603 14.0691 29.6761 14.4971C30.1042 14.9251 30.4344 15.4326 30.6667 16.0196C30.8991 16.6066 31.0152 17.2365 31.0152 17.9091C31.0152 18.5817 30.8991 19.2115 30.6667 19.7985C30.4344 20.3855 30.1042 20.8991 29.6761 21.3394C29.2481 21.7674 28.7345 22.1098 28.1353 22.3666C27.5483 22.6112 26.8879 22.7335 26.1541 22.7335ZM26.1541 20.7157C26.5699 20.7157 26.9429 20.6423 27.2731 20.4955C27.6155 20.3488 27.9029 20.147 28.1353 19.8902C28.3798 19.6334 28.5694 19.3399 28.7039 19.0097C28.8384 18.6673 28.9057 18.3065 28.9057 17.9274C28.9057 17.5361 28.8384 17.1753 28.7039 16.8451C28.5694 16.5027 28.3798 16.2092 28.1353 15.9646C27.9029 15.7078 27.6155 15.506 27.2731 15.3593C26.9429 15.2125 26.5699 15.1391 26.1541 15.1391C25.7261 15.1391 25.3409 15.2125 24.9985 15.3593C24.6561 15.506 24.3626 15.7078 24.118 15.9646C23.8734 16.2092 23.6838 16.5027 23.5493 16.8451C23.4148 17.1753 23.3475 17.5361 23.3475 17.9274C23.3475 18.3065 23.4148 18.6673 23.5493 19.0097C23.6838 19.3521 23.8734 19.6517 24.118 19.9085C24.3626 20.1531 24.6561 20.3488 24.9985 20.4955C25.3531 20.6423 25.7383 20.7157 26.1541 20.7157Z" fill="currentColor"/>
    <path d="M40.9573 20.4588H42.5165V22.4767H40.4804H33.473H31.4369V20.4588H31.657C31.8037 20.4588 31.9505 20.4527 32.0972 20.4405C32.2562 20.416 32.403 20.361 32.5375 20.2754C32.6842 20.1776 32.8065 20.0247 32.9044 19.8168C33.0022 19.5967 33.0633 19.2971 33.0878 18.918C33.1 18.6978 33.1061 18.3677 33.1061 17.9274C33.1184 17.4871 33.1245 17.0041 33.1245 16.4782C33.1367 15.9524 33.1428 15.4143 33.1428 14.864C33.1551 14.3014 33.1612 13.8 33.1612 13.3598H40.9573V20.4588ZM38.8478 20.4588V15.396H35.179C35.1668 15.9952 35.1545 16.6005 35.1423 17.212C35.1423 17.8112 35.1301 18.3187 35.1056 18.7345C35.0812 19.0892 35.0445 19.4132 34.9956 19.7068C34.9466 19.988 34.8855 20.2387 34.8121 20.4588H38.8478Z" fill="currentColor"/>
    <path d="M54.1759 16.9552C54.7751 17.0041 55.2521 17.212 55.6067 17.5789C55.9614 17.9457 56.1387 18.4594 56.1387 19.1197V22.4767H54.0291V19.615C54.0291 19.3704 53.9558 19.1809 53.809 19.0464C53.6623 18.8996 53.4605 18.8262 53.2037 18.8262H50.874V22.4767H48.7645V18.8262H46.4165C45.8784 18.8262 45.6093 19.0892 45.6093 19.615V22.4767H43.4998V19.1197C43.4998 18.4594 43.671 17.9457 44.0134 17.5789C44.3681 17.212 44.845 17.0041 45.4442 16.9552L43.3347 13.3598H45.6093L47.6822 16.9368H48.7645V13.3598H50.874V16.9368H51.9563L54.0291 13.3598H56.2854L54.1759 16.9552Z" fill="currentColor"/>
    <path d="M61.9403 13.103C62.6986 13.103 63.3773 13.2436 63.9765 13.5249C64.588 13.8062 65.0955 14.1975 65.499 14.6989C65.9148 15.1881 66.2206 15.7751 66.4162 16.4599C66.6119 17.1325 66.673 17.8601 66.5997 18.6428H59.3906C59.4762 19.2298 59.7452 19.7312 60.1977 20.147C60.6624 20.5506 61.2555 20.7646 61.977 20.789C62.4907 20.8013 62.9554 20.7034 63.3712 20.4955C63.787 20.2754 64.0866 19.9819 64.27 19.615H66.4529C66.3062 20.1042 66.086 20.5445 65.7925 20.9358C65.5113 21.3271 65.175 21.6573 64.7836 21.9264C64.3923 22.1832 63.952 22.3788 63.4629 22.5134C62.9859 22.6601 62.4784 22.7335 61.9403 22.7335C61.1944 22.7335 60.5279 22.6051 59.9409 22.3483C59.3539 22.0914 58.8586 21.7429 58.455 21.3027C58.0514 20.8624 57.7396 20.3549 57.5195 19.7801C57.3116 19.1931 57.2076 18.5755 57.2076 17.9274C57.2076 17.2548 57.3238 16.625 57.5562 16.038C57.7885 15.451 58.1126 14.9435 58.5284 14.5155C58.9442 14.0752 59.4395 13.7328 60.0142 13.4882C60.6012 13.2314 61.2433 13.103 61.9403 13.103ZM61.9037 15.0474C61.2677 15.0474 60.7297 15.2186 60.2894 15.561C59.8492 15.9035 59.5618 16.3559 59.4272 16.9185H64.4168C64.2822 16.3437 63.9887 15.8912 63.5363 15.561C63.096 15.2186 62.5518 15.0474 61.9037 15.0474Z" fill="currentColor"/>
    <path d="M74.5107 16.9552C75.0977 17.0163 75.5624 17.2303 75.9049 17.5972C76.2473 17.9519 76.4185 18.4594 76.4185 19.1197V22.4767H74.3089V19.615C74.3089 19.3704 74.2356 19.1809 74.0888 19.0464C73.9421 18.8996 73.7403 18.8262 73.4835 18.8262H70.0899V22.4767H67.9803V13.3598H70.0899V16.9368H72.2361L74.2723 13.3598H76.5652L74.5107 16.9552Z" fill="currentColor"/>
    <path d="M85.6166 15.396H82.5165V22.4767H80.407V15.396H77.2885V13.3598H85.6166V15.396Z" fill="currentColor"/>
</svg>
