<svg width="160" height="161" viewBox="0 0 160 161" fill="none" xmlns="http://www.w3.org/2000/svg">
<g clip-path="url(#clip0_375_2164)">
<path d="M142.222 27.1666H17.7776C15.4201 27.1666 13.1592 28.1031 11.4922 29.7701C9.82518 31.4371 8.88867 33.698 8.88867 36.0555V124.944C8.88867 127.302 9.82518 129.563 11.4922 131.23C13.1592 132.897 15.4201 133.833 17.7776 133.833H142.222C144.579 133.833 146.84 132.897 148.507 131.23C150.174 129.563 151.111 127.302 151.111 124.944V36.0555C151.111 33.698 150.174 31.4371 148.507 29.7701C146.84 28.1031 144.579 27.1666 142.222 27.1666ZM135.378 124.944H25.1553L56.2665 92.7666L49.8665 86.5889L17.7776 119.789V42.8111L73.022 97.7889C74.6875 99.4444 76.9404 100.374 79.2887 100.374C81.637 100.374 83.8899 99.4444 85.5553 97.7889L142.222 41.4333V119.211L109.511 86.5L103.244 92.7666L135.378 124.944ZM23.5998 36.0555H135.022L79.2887 91.4777L23.5998 36.0555Z" fill="#D9DCE3"/>
</g>
<defs>
<clipPath id="clip0_375_2164">
<rect width="160" height="160" fill="white" transform="translate(0 0.5)"/>
</clipPath>
</defs>
</svg>
