<svg viewBox="0 0 21 20" fill="none" xmlns="http://www.w3.org/2000/svg">
    <path
        d="M2.33334 18.3333C2.33334 16.5651 3.03571 14.8694 4.28596 13.6192C5.5362 12.369 7.23189 11.6666 9 11.6666C10.7681 11.6666 12.4638 12.369 13.714 13.6192C14.9643 14.8694 15.6667 16.5651 15.6667 18.3333H2.33334ZM9 10.8333C6.2375 10.8333 4 8.59575 4 5.83325C4 3.07075 6.2375 0.833252 9 0.833252C11.7625 0.833252 14 3.07075 14 5.83325C14 8.59575 11.7625 10.8333 9 10.8333ZM15.1358 12.6941C16.4105 13.0217 17.5494 13.7431 18.3903 14.7556C19.2311 15.7681 19.7312 17.0201 19.8192 18.3333H17.3333C17.3333 16.1583 16.5 14.1783 15.1358 12.6941ZM13.45 10.7974C14.1483 10.1728 14.7068 9.4077 15.0888 8.55221C15.4708 7.69671 15.6677 6.77016 15.6667 5.83325C15.6684 4.69447 15.3772 3.57439 14.8208 2.58075C15.7647 2.77041 16.6138 3.28106 17.2237 4.02592C17.8337 4.77077 18.1669 5.70386 18.1667 6.66658C18.1669 7.26031 18.0402 7.84722 17.7951 8.38798C17.55 8.92874 17.1921 9.41087 16.7455 9.80204C16.2988 10.1932 15.7737 10.4844 15.2054 10.6561C14.637 10.8277 14.0385 10.8759 13.45 10.7974Z"
        fill="currentColor"/>
</svg>
