<svg width="49" height="48" viewBox="0 0 49 48" fill="none" xmlns="http://www.w3.org/2000/svg">
<rect x="0.5" width="48" height="48" rx="24" fill="#29AAEC"/>
<path fill-rule="evenodd" clip-rule="evenodd" d="M14.9876 22.7634C20.8185 20.2312 24.7002 18.5485 26.6494 17.7322C32.1971 15.4165 33.3632 15.0167 34.1129 15C34.2795 15 34.646 15.0333 34.8959 15.2332C35.0959 15.3998 35.1458 15.6164 35.1792 15.783C35.2125 15.9496 35.2458 16.2995 35.2125 16.566C34.9126 19.7314 33.6131 27.4115 32.9468 30.9434C32.6635 32.4427 32.1138 32.9425 31.5807 32.9925C30.4145 33.0925 29.5315 32.2262 28.4153 31.4931C26.6494 30.3436 25.6665 29.6272 23.9505 28.4944C21.968 27.1949 23.2508 26.4786 24.3837 25.3124C24.6835 25.0125 29.7981 20.3478 29.898 19.9313C29.9147 19.8813 29.9147 19.6814 29.7981 19.5814C29.6814 19.4815 29.5148 19.5148 29.3816 19.5481C29.1983 19.5814 26.3995 21.4473 20.9518 25.1291C20.1521 25.6789 19.4357 25.9454 18.786 25.9288C18.0696 25.9121 16.7035 25.5289 15.6706 25.1958C14.4211 24.7959 13.4216 24.5793 13.5049 23.8796C13.5548 23.5131 14.0546 23.1466 14.9876 22.7634Z" fill="white"/>
</svg>
