<svg viewBox="0 0 21 20" fill="none" xmlns="http://www.w3.org/2000/svg">
    <path
        d="M2.57314 8.96953C7.43222 6.8593 10.667 5.4571 12.2913 4.77683C16.9144 2.84708 17.8862 2.51388 18.5109 2.5C18.6498 2.5 18.9552 2.52777 19.1634 2.69436C19.33 2.83319 19.3717 3.01368 19.3995 3.15251C19.4272 3.29134 19.455 3.58288 19.4272 3.80501C19.1773 6.4428 18.0944 12.8429 17.5391 15.7861C17.3031 17.0356 16.845 17.4521 16.4007 17.4938C15.4289 17.5771 14.6931 16.8551 13.7629 16.2443C12.2913 15.2863 11.4722 14.6894 10.0422 13.7453C8.39016 12.6624 9.45916 12.0655 10.4032 11.0936C10.6531 10.8437 14.9152 6.95648 14.9985 6.6094C15.0124 6.56775 15.0124 6.40115 14.9152 6.31785C14.818 6.23455 14.6792 6.26232 14.5681 6.29009C14.4154 6.31785 12.0831 7.87276 7.54329 10.9409C6.8769 11.3991 6.27993 11.6212 5.73848 11.6073C5.14151 11.5934 4.0031 11.2741 3.14234 10.9965C2.10111 10.6633 1.26813 10.4828 1.33754 9.89969C1.37919 9.59427 1.79568 9.28884 2.57314 8.96953Z"
        fill="currentColor"/>
</svg>
