<svg width="160" height="161" viewBox="0 0 160 161" fill="none" xmlns="http://www.w3.org/2000/svg">
<g clip-path="url(#clip0_375_2158)">
<path d="M142.222 22.7222H17.7776C15.4201 22.7222 13.1592 23.6587 11.4922 25.3257C9.82518 26.9927 8.88867 29.2536 8.88867 31.6111V129.389C8.88867 131.746 9.82518 134.007 11.4922 135.674C13.1592 137.341 15.4201 138.278 17.7776 138.278H142.222C144.579 138.278 146.84 137.341 148.507 135.674C150.174 134.007 151.111 131.746 151.111 129.389V31.6111C151.111 29.2536 150.174 26.9927 148.507 25.3257C146.84 23.6587 144.579 22.7222 142.222 22.7222ZM17.7776 31.6111H142.222V41.3888H17.7776V31.6111ZM17.7776 129.389V48.4999H142.222V129.389H17.7776Z" fill="#D9DCE3"/>
<path d="M75.5557 102.722H102.222V111.611H75.5557V102.722Z" fill="#D9DCE3"/>
<path d="M31.1113 70.1889L61.2891 84.0556L31.1113 97.8778V107.656L73.778 88.0556V80.0111L31.1113 60.4111V70.1889Z" fill="#D9DCE3"/>
</g>
<defs>
<clipPath id="clip0_375_2158">
<rect width="160" height="160" fill="white" transform="translate(0 0.5)"/>
</clipPath>
</defs>
</svg>
