<svg viewBox="0 0 21 20" fill="none" xmlns="http://www.w3.org/2000/svg">
    <path
        d="M15.2988 11.4923C15.2598 11.4736 13.8018 10.7556 13.5427 10.6624C13.4369 10.6244 13.3236 10.5873 13.2031 10.5873C13.0062 10.5873 12.8408 10.6854 12.712 10.8782C12.5663 11.0947 12.1254 11.61 11.9892 11.764C11.9714 11.7843 11.9471 11.8086 11.9326 11.8086C11.9195 11.8086 11.6939 11.7157 11.6256 11.686C10.0615 11.0066 8.87426 9.37278 8.71147 9.09726C8.68822 9.05765 8.68725 9.03966 8.68705 9.03966C8.69277 9.01869 8.74536 8.96596 8.77251 8.93875C8.85192 8.86018 8.93796 8.75661 9.02121 8.65641C9.06062 8.60894 9.1001 8.56141 9.13887 8.51661C9.25965 8.37609 9.31342 8.267 9.37575 8.14063L9.40842 8.07498C9.56062 7.77258 9.43062 7.51739 9.38861 7.43498C9.35413 7.36602 8.73848 5.88018 8.67303 5.72407C8.51562 5.34739 8.30764 5.172 8.01861 5.172C7.99179 5.172 8.01861 5.172 7.90614 5.17674C7.76919 5.18252 7.02342 5.2807 6.69368 5.48856C6.344 5.70901 5.75244 6.41174 5.75244 7.64758C5.75244 8.75985 6.45829 9.81005 6.76134 10.2095C6.76887 10.2195 6.7827 10.24 6.80277 10.2693C7.96335 11.9643 9.41017 13.2204 10.8769 13.8063C12.2889 14.3703 12.9575 14.4355 13.3376 14.4355H13.3377C13.4974 14.4355 13.6253 14.423 13.7381 14.4119L13.8096 14.405C14.2974 14.3618 15.3694 13.8063 15.6132 13.1288C15.8053 12.595 15.8559 12.0119 15.7282 11.8003C15.6406 11.6564 15.4898 11.584 15.2988 11.4923Z"
        fill="currentColor"/>
    <path
        d="M10.6775 0C5.26089 0 0.854141 4.37364 0.854141 9.74955C0.854141 11.4883 1.31947 13.1903 2.20096 14.6799L0.513751 19.6569C0.482323 19.7497 0.505699 19.8523 0.574336 19.9221C0.623881 19.9727 0.691089 20 0.759725 20C0.786024 20 0.812517 19.996 0.838362 19.9878L6.02797 18.3387C7.4481 19.0975 9.05317 19.498 10.6776 19.498C16.0937 19.4981 20.5 15.1249 20.5 9.74955C20.5 4.37364 16.0937 0 10.6775 0ZM10.6775 17.4671C9.14901 17.4671 7.66856 17.0258 6.39596 16.1907C6.35317 16.1626 6.30349 16.1482 6.25349 16.1482C6.22706 16.1482 6.20057 16.1522 6.17479 16.1604L3.57511 16.9868L4.41434 14.5108C4.44148 14.4307 4.42791 14.3423 4.37791 14.274C3.40882 12.9499 2.89654 11.3854 2.89654 9.74955C2.89654 5.49351 6.38706 2.03091 10.6775 2.03091C14.9673 2.03091 18.4575 5.49351 18.4575 9.74955C18.4575 14.0051 14.9675 17.4671 10.6775 17.4671Z"
        fill="currentColor"/>
</svg>
