<svg width="49" height="48" viewBox="0 0 49 48" fill="none" xmlns="http://www.w3.org/2000/svg">
<rect x="0.5" width="48" height="48" rx="24" fill="#0DA22F"/>
<path d="M30.2588 25.7909C30.212 25.7685 28.4623 24.9069 28.1514 24.795C28.0245 24.7494 27.8885 24.7049 27.7439 24.7049C27.5076 24.7049 27.3092 24.8227 27.1546 25.0539C26.9798 25.3137 26.4507 25.9322 26.2872 26.117C26.2659 26.1413 26.2367 26.1705 26.2193 26.1705C26.2036 26.1705 25.9328 26.059 25.8509 26.0234C23.9739 25.2081 22.5493 23.2475 22.3539 22.9169C22.3261 22.8693 22.3249 22.8477 22.3246 22.8477C22.3315 22.8226 22.3946 22.7593 22.4272 22.7266C22.5225 22.6324 22.6257 22.5081 22.7256 22.3878C22.7729 22.3309 22.8203 22.2738 22.8668 22.2201C23.0118 22.0515 23.0763 21.9205 23.1511 21.7689L23.1903 21.6901C23.3729 21.3272 23.2169 21.021 23.1665 20.9221C23.1251 20.8394 22.3864 19.0564 22.3078 18.869C22.1189 18.417 21.8694 18.2065 21.5225 18.2065C21.4903 18.2065 21.5225 18.2065 21.3876 18.2122C21.2232 18.2192 20.3283 18.337 19.9326 18.5864C19.513 18.851 18.8031 19.6942 18.8031 21.1772C18.8031 22.512 19.6501 23.7722 20.0138 24.2515C20.0228 24.2636 20.0394 24.2881 20.0635 24.3233C21.4562 26.3573 23.1924 27.8646 24.9524 28.5677C26.6468 29.2445 27.4492 29.3228 27.9053 29.3228H27.9054C28.0971 29.3228 28.2505 29.3077 28.3859 29.2944L28.4718 29.2862C29.0571 29.2343 30.3435 28.5678 30.6361 27.7546C30.8665 27.1142 30.9273 26.4145 30.774 26.1605C30.6689 25.9878 30.4879 25.901 30.2588 25.7909Z" fill="white"/>
<path d="M24.713 12C18.2131 12 12.925 17.2484 12.925 23.6995C12.925 25.786 13.4834 27.8284 14.5412 29.6159L12.5165 35.5883C12.4788 35.6996 12.5068 35.8227 12.5892 35.9066C12.6487 35.9673 12.7293 36 12.8117 36C12.8432 36 12.875 35.9952 12.906 35.9854L19.1336 34.0064C20.8377 34.917 22.7638 35.3976 24.7131 35.3976C31.2124 35.3977 36.5 30.1498 36.5 23.6995C36.5 17.2484 31.2124 12 24.713 12ZM24.713 32.9606C22.8788 32.9606 21.1023 32.4309 19.5752 31.4289C19.5238 31.3951 19.4642 31.3778 19.4042 31.3778C19.3725 31.3778 19.3407 31.3826 19.3097 31.3925L16.1901 32.3841L17.1972 29.413C17.2298 29.3169 17.2135 29.2108 17.1535 29.1288C15.9906 27.5398 15.3759 25.6625 15.3759 23.6995C15.3759 18.5922 19.5645 14.4371 24.7129 14.4371C29.8608 14.4371 34.0489 18.5922 34.0489 23.6995C34.049 28.8061 29.8609 32.9606 24.713 32.9606Z" fill="white"/>
</svg>
